<?xml version="1.0" standalone="no"?>
<!DOCTYPE svg PUBLIC "-//W3C//DTD SVG 20010904//EN" "http://www.w3.org/TR/2001/REC-SVG-20010904/DTD/svg10.dtd">
<!-- Created using Krita: https://krita.org -->
<svg xmlns="http://www.w3.org/2000/svg" 
    xmlns:xlink="http://www.w3.org/1999/xlink"
    xmlns:krita="http://krita.org/namespaces/svg/krita"
    xmlns:sodipodi="http://sodipodi.sourceforge.net/DTD/sodipodi-0.dtd"
    width="485.856pt"
    height="90.288pt"
    viewBox="0 0 485.856 90.288">
<defs/>
<path id="path852" transform="matrix(0.239999995175087 0 0 0.239999995175087 0.721153056252585 7.68000199685932)" fill="#121212" stroke="#000000" stroke-opacity="0" stroke-width="0" stroke-linecap="square" stroke-linejoin="bevel" d="M758.352 199.586L758.352 87.1715L764.678 85.86C768.157 85.1384 778.28 83.7582 787.171 82.7924C802.396 81.1389 803.339 81.3899 803.339 87.0964C803.339 90.4294 804.288 92.668 805.447 92.071C823.773 82.638 831.213 80.8773 847.297 82.1684C916.545 87.727 944.971 174.839 893.307 223.165C871.075 243.96 836.216 250.13 811.925 237.568L803.339 233.128L803.339 272.564L803.339 312L780.845 312L758.352 312ZM864.089 198.189C871.153 193.561 881.898 174.112 881.989 165.792C882.014 163.472 880.728 156.869 879.131 151.118C870.069 118.489 831.184 107.826 810.575 132.318C804.315 139.758 803.339 143.563 803.339 160.524C803.339 172.512 804.989 183.32 807.585 188.342C817.055 206.653 844.003 211.35 864.089 198.189ZM89.4626 240.26C66.9248 233.916 48.6391 222.904 32.7519 206.105C15.5609 187.928 6.18727 168.315 1.72239 141.179C-13.6618 47.6795 76.6155 -24.4771 168.552 7.83586C185.24 13.7013 210.963 29.8181 209.522 33.5058C209.051 34.712 202.223 42.7111 194.348 51.2815L180.031 66.864L162.192 58.0222C138.832 46.4441 109.435 45.5382 88.473 55.7505C72.4922 63.5362 57.549 80.1447 53.0678 95.1015C48.8836 109.067 48.8836 135.354 53.0678 149.32C57.5412 164.251 72.4963 180.895 88.3219 188.556C105.092 196.674 138.998 197.482 153.134 190.101C162.203 185.365 162.272 185.17 162.272 164.314L162.272 143.298L146.808 143.298L131.344 143.298L131.344 120.805L131.344 98.3112L170.708 98.3112L210.071 98.3112L210.071 155.816L210.071 213.321L197.371 222.058C169.745 241.066 121.336 249.231 89.4626 240.26ZM254.121 242.645C253.09 241.614 252.247 206.287 252.247 164.141L252.247 87.5112L259.979 86.0572C264.232 85.257 274.986 83.8006 283.878 82.8197L300.045 81.0364L300.045 90.1095C300.045 98.6434 300.344 98.9125 305.069 94.6367C313.402 87.0952 330.019 81.441 343.849 81.441L356.905 81.441L355.328 90.579C354.461 95.6049 352.9 105.803 351.859 113.241C350.305 124.345 349.148 126.402 345.391 124.736C342.874 123.62 336.076 122.146 330.284 121.461C321.175 120.385 318.423 121.547 309.899 130.07L300.045 139.924L300.045 192.222L300.045 244.519L278.021 244.519C265.907 244.519 255.152 243.676 254.121 242.645ZM425.107 238.029C394.634 223.539 378.846 197.864 378.8 162.726C378.778 144.432 380.023 138.882 387.531 123.858C417.587 63.7114 509.296 66.6362 536.907 128.623C541.209 138.28 542.818 147.633 542.818 162.98C542.818 188.351 536.341 205.043 520.251 221.133C503.663 237.72 490.817 242.83 463.124 243.856C442.615 244.616 437.221 243.793 425.107 238.029ZM472.03 205.072C484.775 201.532 498.774 186.113 501.256 172.881C509.398 129.482 459.34 101.421 430.256 133.082C405.587 159.937 422.751 204.639 458.906 207.698C460.453 207.829 466.359 206.647 472.03 205.072ZM612.246 241.366C597.692 236.969 587.743 228.783 579.117 214.11C571.419 201.015 571.369 200.587 570.471 141.19L569.568 81.441L592.261 81.441L614.955 81.441L614.955 129.33C614.955 180.912 617.209 192.072 629.342 200.571C640.239 208.203 655.357 206.496 665.349 196.504L674 187.853L674 134.647L674 81.441L696.494 81.441L718.988 81.441L718.988 162.98L718.988 244.519L696.494 244.519C674.414 244.519 674 244.391 674 237.535L674 230.551L662.325 236.636C649.017 243.573 626.568 245.693 612.246 241.366ZM990.209 238.035C941.392 214.727 928.486 147.965 964.956 107.401C981.724 88.7513 1000.24 80.8162 1027 80.8162C1060.06 80.8162 1085.91 96.221 1100.74 124.769C1110.82 144.16 1111.49 180.594 1102.11 198.454C1093.17 215.467 1082.74 226.802 1068.18 235.331C1057.25 241.738 1051.35 243.049 1029.82 243.851C1007.57 244.679 1002.59 243.946 990.209 238.035ZM1049.04 199.956C1059.98 193.7 1067.64 178.48 1067.64 162.98C1067.64 137.961 1050.53 119.868 1026.87 119.868C1002.82 119.868 985.45 137.794 985.45 162.605C985.45 198.414 1018.15 217.622 1049.04 199.956ZM1140.74 165.845L1140.74 87.1715L1147.07 85.86C1150.55 85.1384 1160.67 83.7582 1169.56 82.7924C1185.3 81.0831 1185.73 81.2184 1185.73 87.8856L1185.73 94.7347L1199.08 87.8544C1216.7 78.7814 1241.27 80.0152 1259.85 90.9057L1272.34 98.2242L1285.97 90.5679C1297.82 83.9131 1302.73 82.9078 1323.5 82.8833C1356.23 82.8408 1371.07 91.2729 1382.82 116.587C1387.38 126.391 1388.06 135.317 1388.11 186.177L1388.17 244.519L1365.84 244.519L1343.52 244.519L1342.65 189.442L1341.78 134.365L1333.89 127.585C1318.85 114.66 1296.78 120.612 1289.59 139.534C1288.14 143.352 1286.95 168.536 1286.95 195.498L1286.95 244.519L1264.46 244.519L1241.96 244.519L1241.96 190.881L1241.96 137.242L1233.74 129.024C1222.17 117.45 1205.52 117.45 1193.95 129.024L1185.73 137.242L1185.73 190.881L1185.73 244.519L1163.24 244.519L1140.74 244.519ZM1462.68 241.89C1438.01 235.883 1424.4 221.021 1422.49 197.996C1420.31 171.788 1432.16 150.127 1454.13 140.148C1468.22 133.748 1496.91 133.228 1511 139.117C1523.1 144.173 1525.09 142.959 1521.48 132.699C1516.38 118.165 1485.15 114.278 1459.52 124.987L1450.27 128.851L1441.76 115.013L1433.24 101.175L1446.56 94.4691C1470.48 82.4189 1504.27 78.1846 1526.72 84.4215C1532.57 86.0436 1541.8 91.2854 1547.25 96.07C1565.83 112.385 1566.58 115.57 1567.64 183.365L1568.59 244.519L1545.86 244.519C1524.62 244.519 1523.13 244.131 1523.13 238.595C1523.13 234.032 1522 233.15 1518.21 234.757C1494.97 244.612 1481.15 246.387 1462.68 241.89ZM1517.4 201.033C1524.94 194.214 1524.99 178.9 1517.51 171.415C1506.25 160.157 1468.17 165.158 1463.02 178.57C1455.97 196.942 1469.58 208.917 1495.61 207.248C1506.13 206.573 1513.65 204.429 1517.4 201.033ZM1609.36 242.645C1608.33 241.614 1607.48 206.287 1607.48 164.141L1607.48 87.5112L1615.22 86.0572C1619.47 85.257 1630.22 83.8006 1639.11 82.8197C1654.86 81.083 1655.28 81.2152 1655.28 87.8856L1655.28 94.7347L1668.41 88.0879C1698.92 72.6436 1737.3 85.836 1751.26 116.563C1755.68 126.289 1756.39 135.832 1756.44 186.177L1756.5 244.519L1734.01 244.519L1711.52 244.519L1711.52 195.734C1711.52 141.779 1709.39 131.192 1697.29 124.937C1683.7 117.91 1670.87 119.579 1662.56 129.456C1655.29 138.095 1655.28 138.174 1655.28 191.313L1655.28 244.519L1633.26 244.519C1621.14 244.519 1610.39 243.676 1609.36 242.645ZM1795.87 162.98L1795.87 81.441L1818.36 81.441L1840.85 81.441L1840.85 162.98L1840.85 244.519L1818.36 244.519L1795.87 244.519ZM1908.66 240.299C1883.88 232.571 1869.24 209.395 1873.06 183.93C1875.72 166.236 1889.25 146.839 1903.45 140.395C1917.99 133.793 1944.96 133.155 1961.58 139.02L1973.37 143.176L1972.48 135.505C1971.82 129.782 1968.81 126.474 1960.63 122.48C1950.91 117.734 1947.55 117.477 1931.11 120.219C1920.9 121.921 1909.93 124.102 1906.73 125.067C1902.12 126.455 1899.33 124.445 1893.37 115.438C1889.23 109.177 1885.84 102.919 1885.84 101.529C1885.84 96.95 1915 86.2984 1935.81 83.2747C1973.26 77.8329 2001.47 88.9156 2012.61 113.449C2017.21 123.573 2017.87 132.503 2017.93 184.771L2017.99 244.519L1995.5 244.519C1974.88 244.519 1973 244.051 1973 238.896C1973 232.031 1973.54 232.033 1958.55 238.832C1944.39 245.256 1926.27 245.788 1908.66 240.297ZM1964.71 203.677C1972.01 199.902 1973 197.888 1973 186.872C1973 176.748 1971.71 173.508 1966.23 169.915C1956.32 163.426 1931.92 163.882 1922.73 170.727C1901.29 186.681 1913.33 207.332 1944.32 207.789C1950.97 207.885 1960.15 206.037 1964.71 203.678ZM1802.34 60.3539C1794.05 54.548 1791.67 41.6659 1796.99 31.3805C1803.24 19.2932 1815.96 16.0539 1830.74 22.787C1844.48 29.0451 1845.51 54.7582 1832.31 61.8226C1824.66 65.9131 1809.19 65.1549 1802.34 60.3539Z"/>
</svg>
