<?xml version="1.0" standalone="no"?>
<!DOCTYPE svg PUBLIC "-//W3C//DTD SVG 20010904//EN" "http://www.w3.org/TR/2001/REC-SVG-20010904/DTD/svg10.dtd">
<!-- Created using Krita: https://krita.org -->
<svg xmlns="http://www.w3.org/2000/svg" 
    xmlns:xlink="http://www.w3.org/1999/xlink"
    xmlns:krita="http://krita.org/namespaces/svg/krita"
    xmlns:sodipodi="http://sodipodi.sourceforge.net/DTD/sodipodi-0.dtd"
    width="120pt"
    height="120pt"
    viewBox="0 0 120 120">
<defs/>
<path id="path826" transform="matrix(0.239999999999981 0 0 0.239999999999981 5.99999963046779e-10 9.99200722162562e-18)" fill="#122542" stroke="#000000" stroke-opacity="0" stroke-width="0" stroke-linecap="square" stroke-linejoin="bevel" d="M225.282 498.996C148.752 491.1 82.3483 450.9 40.294 387.006C18.2052 353.446 4.61026 314.233 0.773004 273.013C-0.257668 261.941 -0.257668 237.859 0.773004 226.787C7.91694 150.046 48.3725 82.6959 112.795 40.294C146.354 18.2052 185.567 4.61024 226.787 0.773011C237.859 -0.25767 261.941 -0.25767 273.013 0.773011C349.754 7.91692 417.104 48.3725 459.506 112.795C481.595 146.354 495.19 185.567 499.027 226.787C500.058 237.859 500.058 261.941 499.027 273.013C490.923 360.063 439.305 435.51 361.546 473.955C336.852 486.165 314.362 493.207 286.332 497.506C277.627 498.842 270.916 499.243 253.817 499.453C241.967 499.599 229.126 499.393 225.282 498.996ZM258.652 458.595L264.506 458.1L268.862 451.348C282.72 429.864 297.113 401.062 304.625 379.777L306.97 373.134L300.534 366.557C296.311 362.241 293.168 358.162 291.391 354.694L288.682 349.408L235.602 349.405C206.407 349.403 182.521 349.604 182.521 349.852C182.521 350.099 183.764 354.714 185.284 360.107C190.651 379.155 199.095 400.663 208.919 420.307C214.192 430.85 226.399 452.554 229.102 456.189C230.624 458.236 247.059 459.574 258.652 458.595ZM329.158 442.981C367.349 426.677 401.417 398.646 423.725 365.172C429.144 357.04 432.451 351.382 432.451 350.242C432.451 349.664 425.306 349.402 409.502 349.402L386.552 349.402L384.528 353.516C378.307 366.156 366.019 376.641 353.072 380.358C350.566 381.078 348.378 382.075 348.209 382.575C342.016 400.948 333.998 420.292 326.4 435.193C323.763 440.364 321.484 444.86 321.336 445.183C320.834 446.277 322.607 445.778 329.158 442.981ZM167.649 430.297C157.132 407.666 149.629 387.221 142.933 362.948C141.006 355.962 139.429 350.057 139.429 349.825C139.429 349.592 123.211 349.402 103.389 349.402C83.5669 349.402 67.3488 349.683 67.3488 350.027C67.3488 351.346 77.2395 366.651 83.6538 375.257C91.0129 385.131 110.435 405.144 119.842 412.546C130.922 421.265 145.316 430.286 158.619 436.851C165.941 440.464 172.341 443.42 172.84 443.42C173.339 443.42 171.004 437.515 167.649 430.297ZM131.979 305.723C128.55 285.193 127.732 248.218 130.089 220.333L130.966 209.961L126.221 205.288C123.61 202.718 120.176 198.66 118.589 196.269L115.703 191.922L82.9294 191.922L50.156 191.922L48.9637 196.036C47.0195 202.742 44.81 213.62 43.3539 223.653C41.7142 234.952 41.4789 264.694 42.9479 274.971C44.3269 284.618 46.9224 297.336 48.6642 302.981L50.1752 307.878L91.2569 307.878L132.339 307.878ZM292.6 303.374C297.739 293.536 309.36 284.152 321.43 280.093L327.073 278.195L327.677 274.037C329.414 262.089 327.955 210.939 325.426 195.123L324.914 191.922L266.335 191.922L207.755 191.922L205.278 195.783C199.393 204.953 186.802 214.268 176.12 217.352L171.679 218.635L171.028 224.67C170.67 227.989 170.41 241.282 170.451 254.209C170.51 272.933 170.868 280.648 172.214 292.14C173.142 300.074 173.902 306.861 173.902 307.222C173.902 307.582 200.08 307.877 232.076 307.876L290.249 307.874L292.6 303.375ZM451.96 300.982C460.445 264.839 459.985 223.696 450.783 195.644L449.562 191.922L407.999 191.922L366.436 191.922L366.996 196.819C367.304 199.512 367.89 204.536 368.297 207.984C369.515 218.288 370.042 263.171 369.093 275.693L368.236 286.992L372.942 291.251C375.53 293.593 379.46 298.292 381.675 301.694L385.703 307.878L418.022 307.878L450.341 307.878ZM315.09 149.976C315.322 149.744 314.344 145.425 312.917 140.378C304.373 110.154 290.426 78.8038 272.19 48.8317C268.451 42.6873 268.188 42.4412 264.873 41.9762C260.372 41.3451 240.96 41.3702 237.073 42.0123C234.273 42.4749 233.664 43.0893 229.126 50.0343C217.622 67.6371 206.283 89.3881 197.049 111.564L192.017 123.648L197.297 129.023C202.702 134.526 207.21 141.154 209.568 147.068L210.896 150.398L262.782 150.398C291.319 150.398 314.858 150.208 315.09 149.976ZM432.451 149.454C432.451 147.959 424.179 135.167 416.867 125.357C413.186 120.418 405.403 111.469 399.571 105.47C384.028 89.4805 369.51 78.1999 350.946 67.689C341.868 62.5493 325.616 55.298 325.295 56.2439C325.178 56.5858 327.698 62.3092 330.894 68.9626C341.115 90.2396 350.307 115.315 356.151 137.862C357.658 143.68 359.037 148.88 359.215 149.419C359.678 150.82 432.451 150.855 432.451 149.454ZM115.014 142.458C119.824 132.471 127.569 124.682 137.756 119.585C141.792 117.566 146.449 115.698 148.105 115.433C151.01 114.968 151.192 114.752 153.21 109.366C158.23 95.9737 164.341 81.6679 170.461 68.9844C174.081 61.4812 176.872 55.1713 176.663 54.9625C175.357 53.6566 148.651 67.1074 135.936 75.4749C109.01 93.1953 84.2953 119.19 69.7307 145.109L67.1993 149.614L89.4074 149.564L111.616 149.515L115.014 142.458Z"/>
</svg>
